# xmcd
#
# Track frame offsets: 
#        150
#        12680
#        26187
#        40940
#        53422
#        65640
#        78245
#        93245
#        105592
#        119815
#        132720
#        147390
#        165215
#        179695
#        198435
#        212805
#
# Disc length: 3045 seconds
#
# Revision: 2
# Processed by: cddbd v1.5.1PL0 Copyright (c) Steve Scherf et al.
# Submitted via: ExactAudioCopy v0.95a4
#
DISCID=ec0be310
DTITLE=Art Tatum - The Definitive Art Tatum
DYEAR=2002
DGENRE=Jazz
TTITLE0=The Shout
TTITLE1=Sweet Emalina, My Gal
TTITLE2=Elegie
TTITLE3=Get Happy
TTITLE4=Aunt Hagar's Blues
TTITLE5=Nice Work If You Can Get It
TTITLE6=It's The Talk of The Town
TTITLE7=Makin' Whoopee
TTITLE8=Goin' Home
TTITLE9=Blue Skies
TTITLE10=Someone to Watch Over Me
TTITLE11=Mine
TTITLE12=Yesterdays
TTITLE13=Jitterbug Waltz
TTITLE14=Mr. Freddie Blues
TTITLE15=Indiana
EXTD=YEAR: 2002
EXTT0=
EXTT1=
EXTT2=
EXTT3=
EXTT4=
EXTT5=
EXTT6=
EXTT7=
EXTT8=
EXTT9=
EXTT10=
EXTT11=
EXTT12=
EXTT13=
EXTT14=
EXTT15=
PLAYORDER=
